# 3ds Max Wavefront OBJ Exporter v0.97b - (c)2007 guruware
# File Created: 24.01.2018 12:56:18

#
# object pillar_large
#

v  6.4238 13.3282 2.5515
v  7.4480 13.8213 1.2847
v  6.2057 13.8213 1.2847
v  5.1997 13.3282 2.4325
v  3.6024 13.5002 6.4845
v  2.5830 13.5002 5.8718
v  1.7848 14.0506 7.1802
v  2.6633 14.0506 8.0586
v  -3.3461 14.1514 7.6562
v  -4.1012 14.1514 7.2637
v  -4.4228 14.1514 8.4637
v  -3.5406 14.1514 8.8079
v  -6.1207 14.1514 2.7087
v  -7.1965 14.1514 3.3298
v  -6.4653 14.1514 -1.9153
v  -7.7076 14.1514 -1.9153
v  -5.1969 14.1514 -3.5719
v  -6.0753 14.1514 -4.4503
v  6.1924 14.1514 -4.2052
v  4.9925 14.1514 -3.8837
v  6.4653 14.1514 -0.0446
v  7.7076 14.1514 -0.0446
v  1.2166 14.1514 7.6390
v  1.9114 14.1514 8.5475
v  5.7011 11.6926 2.9415
v  4.8142 4.3795 3.7613
v  6.3440 4.3795 3.2594
v  7.1162 11.6926 2.1855
v  1.1184 4.3795 6.3094
v  2.3919 11.6926 6.2334
v  1.6772 11.6926 8.1157
v  0.2354 4.3795 7.9173
v  0.8799 11.5283 8.5001
v  -0.5785 4.3795 8.1445
v  -7.4045 9.6935 2.3324
v  -7.3262 4.3795 0.9552
v  -6.2368 4.3795 6.3002
v  -5.2948 9.6935 7.6427
v  -7.2434 9.6935 -2.7890
v  -6.3134 4.3795 -3.8305
v  -5.2843 9.6935 -5.1515
v  -4.0751 4.3795 -5.7211
v  6.6318 9.6935 -3.1831
v  7.5258 11.6926 0.9752
v  6.9325 4.3795 2.1909
v  6.7917 4.3795 -1.8671
v  -4.4867 9.6935 8.0849
v  -5.5518 4.3795 6.8518
v  3.8732 13.5002 6.6473
v  2.8867 14.0506 8.2820
v  2.6586 13.6061 8.2507
v  3.5608 13.1189 6.5600
v  2.1033 14.1514 8.7984
v  1.8928 13.7001 8.7471
v  -3.5932 14.1514 9.1194
v  -3.6891 13.6728 9.0084
v  -4.5045 14.1514 8.7688
v  -4.5893 13.6730 8.6480
v  -7.4701 14.1514 3.4878
v  -7.4630 13.6668 3.3622
v  -8.0235 14.1514 -1.9153
v  -7.9388 13.6672 -2.0102
v  -6.2987 14.1514 -4.6737
v  -6.1882 13.6659 -4.7257
v  8.0235 14.1514 -0.0446
v  7.9315 13.6969 0.1439
v  6.5122 13.6657 -4.1667
v  6.4976 14.1514 -4.2870
v  7.7639 13.8213 1.2847
v  7.6289 13.3773 1.4725
v  6.7382 13.3282 2.5821
v  6.4746 12.9125 2.6734
v  2.6943 4.3795 4.8612
v  3.7758 11.6926 4.4722
v  4.6886 12.8256 4.7037
v  4.9987 13.2106 4.7823
v  3.4936 13.2106 4.3790
v  4.6935 13.2106 4.7005
v  1.7702 14.8356 -8.5146
v  1.9192 14.3610 -8.5704
v  0.3333 14.2899 -8.4594
v  0.1857 14.7635 -8.3924
v  0.1832 14.7607 -8.0765
v  0.1732 14.7492 -6.8049
v  1.7304 14.8356 -6.9444
v  1.7622 14.8356 -8.1988
v  3.3845 9.6935 -9.1194
v  4.5770 4.3795 -8.1355
v  2.9875 4.3795 -8.4003
v  1.7662 9.6935 -9.1090
v  4.5204 14.7162 -6.7385
v  3.6000 14.8356 -7.4753
v  3.0063 14.8356 -6.4088
v  3.8930 14.6740 -5.6371
v  4.6767 14.7267 -7.0129
v  4.7779 14.2371 -7.0391
v  3.8714 14.3512 -7.7968
v  3.7537 14.8356 -7.7513
v  5.7166 9.6935 -7.2822
v  6.4420 4.3795 -6.0242
v  5.8734 4.3795 -7.0916
v  5.0030 9.6935 -8.2335
v  0.6169 -15.3778 3.6730
v  2.3787 -15.3836 3.9335
v  -1.0992 -15.3334 3.8915
v  -1.9915 -15.3598 4.7910
v  -1.9132 -15.3296 4.6876
v  -4.8040 -15.3851 -0.8186
v  -5.2415 -15.3777 2.6905
v  -2.9826 -15.3830 -3.6315
v  -1.2401 -15.3719 -4.1372
v  3.7842 -15.3440 -4.0082
v  3.9310 -15.3864 3.0691
v  4.9532 -15.3840 0.4498
v  3.4574 -15.3828 3.9156
v  -4.7405 -15.3635 2.9689
v  5.4426 -15.3866 -3.0933
v  4.6071 -15.3567 -3.7030
v  5.8608 -15.3888 -2.3208
# 119 vertices

vn -0.0131 0.9799 0.1993
vn -0.0072 0.9570 0.2900
vn -0.0108 0.9480 0.3180
vn -0.0109 0.9932 0.1159
vn 0.1208 0.9749 -0.1869
vn 0.1238 0.9737 -0.1912
vn 0.1640 0.9664 -0.1978
vn 0.1576 0.9691 -0.1895
vn 0.0000 1.0000 0.0000
vn 0.0000 1.0000 -0.0000
vn -0.0602 0.9978 0.0283
vn -0.0571 0.9980 0.0270
vn 0.0372 0.9976 0.0579
vn 0.0487 0.9960 0.0750
vn 0.0000 0.9984 0.0561
vn 0.0000 0.9980 0.0629
vn 0.0110 0.9999 -0.0097
vn 0.0175 0.9997 -0.0154
vn 0.5117 -0.0321 0.8586
vn 0.2987 -0.0133 0.9543
vn 0.6002 -0.0312 0.7992
vn 0.7133 0.0145 0.7007
vn 0.6951 -0.1486 0.7034
vn 0.8055 -0.2176 0.5512
vn 0.7776 -0.2385 0.5818
vn 0.7324 -0.1727 0.6586
vn 0.0142 -0.1488 0.9888
vn -0.2282 -0.1473 0.9624
vn -0.9850 -0.0460 0.1661
vn -0.9930 -0.0935 -0.0727
vn -0.9653 -0.0845 0.2470
vn -0.8946 -0.0315 0.4457
vn -0.9546 -0.0749 -0.2884
vn -0.8519 -0.1109 -0.5118
vn -0.5481 -0.0615 -0.8341
vn -0.3521 -0.1374 -0.9258
vn 0.9833 -0.0107 -0.1819
vn 0.9962 -0.0764 -0.0429
vn 0.9817 -0.0942 0.1653
vn 0.9973 -0.0614 0.0412
vn -0.1647 -0.1174 0.9793
vn -0.3549 -0.1489 0.9230
vn 0.8696 0.0115 0.4936
vn 0.7988 0.1238 0.5887
vn 0.6698 -0.4764 0.5695
vn 0.6794 -0.5728 0.4585
vn 0.1531 0.3088 0.9387
vn 0.0924 -0.2116 0.9730
vn 0.0030 0.2923 0.9563
vn -0.0443 -0.1863 0.9815
vn -0.7705 0.3048 0.5599
vn -0.8431 -0.0579 0.5346
vn -0.8639 0.3994 0.3070
vn -0.9597 -0.0658 0.2733
vn -0.9216 0.3754 -0.0989
vn -0.9801 -0.0982 -0.1723
vn -0.5961 0.4189 -0.6849
vn -0.6029 -0.0412 -0.7967
vn 0.9219 0.3108 -0.2311
vn 0.9720 -0.1277 -0.1975
vn 0.9487 -0.0032 -0.3163
vn 0.8144 0.4567 -0.3580
vn 0.8004 0.4255 0.4223
vn 0.8947 -0.1177 0.4308
vn 0.6808 0.2831 0.6755
vn 0.6577 -0.2534 0.7094
vn 0.4287 -0.0782 0.9001
vn 0.6450 -0.1315 0.7528
vn 0.6365 -0.5307 0.5596
vn 0.7936 0.0798 0.6032
vn 0.0298 0.9978 -0.0587
vn 0.0168 0.9996 -0.0226
vn 0.1055 0.5827 -0.8058
vn 0.1827 0.1648 -0.9693
vn -0.4337 -0.0049 -0.9010
vn -0.4393 0.3635 -0.8215
vn -0.0718 0.9970 0.0291
vn -0.0765 0.9965 0.0329
vn -0.0236 0.9997 0.0017
vn -0.0253 0.9997 0.0019
vn 0.2781 0.0334 -0.9600
vn 0.4073 -0.1685 -0.8976
vn -0.1818 -0.1609 -0.9701
vn -0.3706 -0.0643 -0.9266
vn 0.1007 0.9862 0.1311
vn 0.0362 0.9989 0.0282
vn 0.0408 0.9987 0.0314
vn 0.1089 0.9827 0.1500
vn 0.7064 0.5364 -0.4618
vn 0.8740 0.1229 -0.4701
vn 0.5119 0.2112 -0.8327
vn 0.3750 0.6078 -0.7000
vn 0.9367 0.0726 -0.3424
vn 0.9929 -0.0392 -0.1127
vn 0.7220 -0.1228 -0.6810
vn 0.6129 0.0803 -0.7861
vn 0.3346 -0.0911 0.9379
vn 0.2054 -0.0334 0.9781
vn 0.6276 -0.1526 0.7634
vn -0.3131 -0.1675 0.9348
vn 0.7095 -0.1801 0.6813
vn -0.9825 -0.1141 -0.1475
vn -0.9789 -0.1128 0.1706
vn -0.8058 -0.1284 -0.5781
vn -0.2809 -0.1551 -0.9471
vn -0.1268 -0.1752 -0.9763
vn 0.9671 -0.1118 0.2283
vn 0.9909 -0.0818 0.1071
vn 0.5230 -0.0543 0.8506
vn -0.4017 -0.1654 0.9007
vn 0.7501 -0.1476 -0.6447
vn 0.4448 -0.1924 -0.8747
vn 0.9976 -0.0631 -0.0285
# 113 vertex normals

vt 0.5447 0.7227 0.0000
vt 0.5772 0.7202 0.0000
vt 0.5708 0.7417 0.0000
vt 0.5360 0.7447 0.0000
vt 0.4514 0.7361 0.0000
vt 0.4524 0.7589 0.0000
vt 0.4154 0.7621 0.0000
vt 0.4154 0.7402 0.0000
vt 0.2937 0.7560 0.0000
vt 0.2658 0.7511 0.0000
vt 0.2787 0.7339 0.0000
vt 0.2964 0.7353 0.0000
vt 0.1620 0.7342 0.0000
vt 0.1712 0.7137 0.0000
vt 0.0685 0.7128 0.0000
vt 0.0750 0.6916 0.0000
vt 0.0258 0.7153 0.0000
vt 0.0187 0.6910 0.0000
vt 0.6875 0.7182 0.0000
vt 0.6928 0.7412 0.0000
vt 0.6062 0.7423 0.0000
vt 0.6036 0.7211 0.0000
vt 0.3910 0.7607 0.0000
vt 0.3987 0.7421 0.0000
vt 0.5239 0.6823 0.0000
vt 0.4907 0.5458 0.0000
vt 0.5181 0.5444 0.0000
vt 0.5531 0.6793 0.0000
vt 0.4116 0.5493 0.0000
vt 0.4389 0.6860 0.0000
vt 0.4019 0.6909 0.0000
vt 0.3795 0.5526 0.0000
vt 0.3848 0.6872 0.0000
vt 0.3658 0.5515 0.0000
vt 0.1655 0.6227 0.0000
vt 0.1601 0.5204 0.0000
vt 0.2582 0.5406 0.0000
vt 0.2703 0.6429 0.0000
vt 0.0713 0.6026 0.0000
vt 0.0722 0.4994 0.0000
vt 0.0153 0.5884 0.0000
vt 0.0204 0.4831 0.0000
vt 0.6498 0.6303 0.0000
vt 0.5769 0.6771 0.0000
vt 0.5382 0.5427 0.0000
vt 0.6103 0.5341 0.0000
vt 0.2869 0.6454 0.0000
vt 0.2723 0.5432 0.0000
vt 0.4516 0.7293 0.0000
vt 0.4161 0.7363 0.0000
vt 0.4144 0.7288 0.0000
vt 0.4492 0.7195 0.0000
vt 0.4011 0.7377 0.0000
vt 0.3989 0.7296 0.0000
vt 0.2970 0.7304 0.0000
vt 0.2960 0.7220 0.0000
vt 0.2813 0.7294 0.0000
vt 0.2797 0.7200 0.0000
vt 0.1721 0.7084 0.0000
vt 0.1704 0.6992 0.0000
vt 0.0748 0.6870 0.0000
vt 0.0728 0.6790 0.0000
vt 0.0152 0.6816 0.0000
vt 0.0139 0.6684 0.0000
vt 0.6026 0.7179 0.0000
vt 0.5976 0.7119 0.0000
vt 0.6813 0.7016 0.0000
vt 0.6857 0.7114 0.0000
vt 0.5783 0.7154 0.0000
vt 0.5723 0.7087 0.0000
vt 0.5463 0.7154 0.0000
vt 0.5403 0.7059 0.0000
vt 0.4490 0.5473 0.0000
vt 0.4793 0.6842 0.0000
vt 0.4897 0.7112 0.0000
vt 0.4930 0.7218 0.0000
vt 0.4869 0.7528 0.0000
vt 0.4918 0.7293 0.0000
vt 0.8088 0.7030 0.0000
vt 0.8063 0.6956 0.0000
vt 0.8362 0.6895 0.0000
vt 0.8377 0.6984 0.0000
vt 0.8376 0.7035 0.0000
vt 0.8472 0.7239 0.0000
vt 0.8085 0.7305 0.0000
vt 0.8080 0.7079 0.0000
vt 0.7719 0.6121 0.0000
vt 0.7312 0.5189 0.0000
vt 0.7590 0.5149 0.0000
vt 0.7974 0.6085 0.0000
vt 0.9700 0.6722 0.0000
vt 0.9672 0.6969 0.0000
vt 0.8938 0.4780 0.0000
vt 0.9433 0.5760 0.0000
vt 0.9734 0.6518 0.0000
vt 0.9738 0.6636 0.0000
vt 0.7469 0.7168 0.0000
vt 0.7703 0.7145 0.0000
vt 0.7732 0.7366 0.0000
vt 0.7415 0.7395 0.0000
vt 0.7479 0.7112 0.0000
vt 0.7449 0.7023 0.0000
vt 0.7673 0.7014 0.0000
vt 0.7698 0.7095 0.0000
vt 0.7242 0.6184 0.0000
vt 0.6839 0.5248 0.0000
vt 0.7030 0.5223 0.0000
vt 0.7422 0.6161 0.0000
vt 0.4120 0.1748 0.0000
vt 0.4440 0.1744 0.0000
vt 0.3805 0.1750 0.0000
vt 0.3551 0.1747 0.0000
vt 0.3584 0.1760 0.0000
vt 0.2161 0.1492 0.0000
vt 0.2808 0.1645 0.0000
vt 0.1563 0.1324 0.0000
vt 0.1254 0.1206 0.0000
vt 0.6525 0.1516 0.0000
vt 0.7433 0.1299 0.0000
vt 0.4838 0.1706 0.0000
vt 0.5362 0.1657 0.0000
vt 0.4647 0.1730 0.0000
vt 0.2933 0.1660 0.0000
vt 0.6104 0.1557 0.0000
vt 0.6328 0.1530 0.0000
vt 0.5912 0.1595 0.0000
# 126 texture coords

o pillar_large
g pillar_large
s 3
f 1/1/1 2/2/2 3/3/3 4/4/4 
f 5/5/5 6/6/6 7/7/7 8/8/8 
f 9/9/9 10/10/9 11/11/10 12/12/9 
f 10/10/9 13/13/9 14/14/10 11/11/10 
f 13/13/9 15/15/9 16/16/9 14/14/10 
f 15/15/9 17/17/11 18/18/12 16/16/9 
f 19/19/13 20/20/14 21/21/15 22/22/16 
f 2/2/2 22/22/16 21/21/15 3/3/3 
f 7/7/7 23/23/17 24/24/18 8/8/8 
f 23/23/17 9/9/9 12/12/9 24/24/18 
f 25/25/19 26/26/20 27/27/21 28/28/22 
f 29/29/23 30/30/24 31/31/25 32/32/26 
f 33/33/27 34/34/28 32/32/26 31/31/25 
f 35/35/29 36/36/30 37/37/31 38/38/32 
f 39/39/33 40/40/34 36/36/30 35/35/29 
f 41/41/35 42/42/36 40/40/34 39/39/33 
f 43/43/37 44/44/38 45/45/39 46/46/40 
f 28/28/22 27/27/21 45/45/39 44/44/38 
f 47/47/41 48/48/42 34/34/28 33/33/27 
f 38/38/32 37/37/31 48/48/42 47/47/41 
f 49/49/43 50/50/44 51/51/45 52/52/46 
f 53/53/47 54/54/48 51/51/45 50/50/44 
f 55/55/49 56/56/50 54/54/48 53/53/47 
f 57/57/51 58/58/52 56/56/50 55/55/49 
f 59/59/53 60/60/54 58/58/52 57/57/51 
f 61/61/55 62/62/56 60/60/54 59/59/53 
f 63/63/57 64/64/58 62/62/56 61/61/55 
f 65/65/59 66/66/60 67/67/61 68/68/62 
f 69/69/63 70/70/64 66/66/60 65/65/59 
f 71/71/65 72/72/66 70/70/64 69/69/63 
f 30/30/24 29/29/23 73/73/67 74/74/68 
f 49/49/43 52/52/46 75/75/69 76/76/70 
f 77/77/71 6/6/6 5/5/5 78/78/72 
f 78/78/72 1/1/1 4/4/4 77/77/71 
f 72/72/66 71/71/65 76/76/70 75/75/69 
f 26/26/20 25/25/19 74/74/68 73/73/67 
f 79/79/73 80/80/74 81/81/75 82/82/76 
f 83/83/77 84/84/78 85/85/79 86/86/80 
f 87/87/81 88/88/82 89/89/83 90/90/84 
f 18/91/12 17/92/11 84/84/78 83/83/77 
f 90/90/84 89/89/83 42/93/36 41/94/35 
f 82/82/76 81/81/75 64/95/58 63/96/57 
f 91/97/85 92/98/86 93/99/87 94/100/88 
f 95/101/89 96/102/90 97/103/91 98/104/92 
f 99/105/93 100/106/94 101/107/95 102/108/96 
f 19/19/13 91/97/85 94/100/88 20/20/14 
f 43/43/37 46/46/40 100/106/94 99/105/93 
f 68/68/62 67/67/61 96/102/90 95/101/89 
f 85/85/79 93/99/87 92/98/86 86/86/80 
f 102/108/96 101/107/95 88/88/82 87/87/81 
f 98/104/92 97/103/91 80/80/74 79/79/73 
f 73/73/67 103/109/97 104/110/98 26/26/20 
f 29/29/23 105/111/99 103/109/97 73/73/67 
f 34/34/28 106/112/100 107/113/101 32/32/26 
f 36/36/30 108/114/102 109/115/103 37/37/31 
f 40/40/34 110/116/104 108/114/102 36/36/30 
f 42/42/36 111/117/105 110/116/104 40/40/34 
f 89/89/83 112/118/106 111/119/105 42/93/36 
f 45/45/39 113/120/107 114/121/108 46/46/40 
f 27/27/21 115/122/109 113/120/107 45/45/39 
f 48/48/42 116/123/110 106/112/100 34/34/28 
f 37/37/31 109/115/103 116/123/110 48/48/42 
f 29/29/23 32/32/26 107/113/101 105/111/99 
f 26/26/20 104/110/98 115/122/109 27/27/21 
f 101/107/95 117/124/111 118/125/112 88/88/82 
f 88/88/82 118/125/112 112/118/106 89/89/83 
f 46/46/40 114/121/108 119/126/113 100/106/94 
f 100/106/94 119/126/113 117/124/111 101/107/95 
f 67/67/61 43/43/37 99/105/93 96/102/90 
f 96/102/90 99/105/93 102/108/96 97/103/91 
f 97/103/91 102/108/96 87/87/81 80/80/74 
f 80/80/74 87/87/81 90/90/84 81/81/75 
f 81/81/75 90/90/84 41/94/35 64/95/58 
f 64/64/58 41/41/35 39/39/33 62/62/56 
f 62/62/56 39/39/33 35/35/29 60/60/54 
f 60/60/54 35/35/29 38/38/32 58/58/52 
f 58/58/52 38/38/32 47/47/41 56/56/50 
f 56/56/50 47/47/41 33/33/27 54/54/48 
f 54/54/48 33/33/27 31/31/25 51/51/45 
f 30/30/24 52/52/46 51/51/45 31/31/25 
f 52/52/46 30/30/24 74/74/68 75/75/69 
f 25/25/19 72/72/66 75/75/69 74/74/68 
f 72/72/66 25/25/19 28/28/22 70/70/64 
f 70/70/64 28/28/22 44/44/38 66/66/60 
f 66/66/60 44/44/38 43/43/37 67/67/61 
f 95/101/89 98/104/92 92/98/86 91/97/85 
f 86/86/80 92/98/86 98/104/92 79/79/73 
f 82/82/76 83/83/77 86/86/80 79/79/73 
f 63/96/57 18/91/12 83/83/77 82/82/76 
f 16/16/9 18/18/12 63/63/57 61/61/55 
f 14/14/10 16/16/9 61/61/55 59/59/53 
f 11/11/10 14/14/10 59/59/53 57/57/51 
f 12/12/9 11/11/10 57/57/51 55/55/49 
f 24/24/18 12/12/9 55/55/49 53/53/47 
f 8/8/8 24/24/18 53/53/47 50/50/44 
f 49/49/43 5/5/5 8/8/8 50/50/44 
f 78/78/72 5/5/5 49/49/43 76/76/70 
f 76/76/70 71/71/65 1/1/1 78/78/72 
f 2/2/2 1/1/1 71/71/65 69/69/63 
f 22/22/16 2/2/2 69/69/63 65/65/59 
f 68/68/62 19/19/13 22/22/16 65/65/59 
f 91/97/85 19/19/13 68/68/62 95/101/89 
# 102 polygons

#
# object Sand_large
#

v  4.2787 12.9300 4.5316
v  6.0022 13.0475 2.4525
v  5.9919 13.5865 2.5650
v  4.3075 13.4821 4.5188
v  7.0185 13.5406 1.2266
v  7.0138 14.0714 1.3877
v  7.2781 13.8708 -0.1027
v  7.2922 14.4177 -0.0349
v  5.7775 13.8708 -4.1525
v  5.8121 14.4211 -4.1080
v  4.3012 14.4209 -6.4139
v  4.3575 14.9694 -6.3489
v  3.3955 14.5550 -7.1683
v  3.4205 15.1091 -7.1494
v  1.7500 14.5550 -7.8228
v  1.7363 15.1105 -7.8228
v  0.1785 14.4761 -7.6923
v  0.1430 15.0306 -7.6808
v  -2.7474 14.1785 -5.9783
v  -2.7764 14.7332 -5.9671
v  -7.2805 13.8708 -1.9734
v  -7.2810 14.4267 -1.9738
v  -5.7958 14.4256 -4.1947
v  -5.7737 13.8708 -4.2056
v  -6.8269 13.8708 3.0576
v  -6.8269 14.4267 3.0576
v  -4.3131 13.8708 7.9919
v  -4.3131 14.4267 7.9919
v  -3.4764 13.8708 8.3625
v  -3.4764 14.4267 8.3615
v  1.6786 13.8708 8.1865
v  1.7068 14.4247 8.1681
v  2.3592 13.7700 7.6977
v  2.4407 14.3106 7.6139
v  5.4740 13.9356 2.2013
v  3.7897 13.7982 4.1233
v  6.4172 14.4086 1.2027
v  6.6528 14.7161 0.0522
v  5.2381 14.7098 -3.7892
v  3.8904 15.2519 -5.8791
v  3.0907 15.3855 -6.5736
v  1.6347 15.3888 -7.1782
v  0.3228 15.3153 -7.0545
v  -2.4722 15.0209 -5.4142
v  -6.6735 14.7153 -1.8195
v  -5.3630 14.7165 -3.7177
v  -6.1980 14.7115 2.8763
v  -3.8814 14.7111 7.5356
v  -3.3541 14.7055 7.7212
v  1.5058 14.6980 7.5549
v  1.9948 14.5948 7.1281
v  -0.4532 14.9993 -3.0338
v  1.8905 15.0436 -4.4319
v  0.9634 14.6029 -0.7224
v  3.3072 14.4716 -2.1206
v  4.6548 14.5501 0.5673
v  -4.7740 14.7216 2.2574
v  -5.6004 14.8764 -0.8814
v  -2.8774 14.9535 -1.5877
v  -1.4607 14.7387 0.7236
v  1.1250 14.7032 6.6779
v  -3.5364 14.7076 7.0197
v  2.5438 14.5013 2.8278
# 63 vertices

vn 0.8114 -0.0289 0.5838
vn 0.7773 -0.1143 0.6186
vn 0.6423 0.4078 0.6489
vn 0.7298 0.4939 0.4727
vn 0.9117 -0.1118 0.3955
vn 0.7624 0.4117 0.4993
vn 0.9961 -0.0149 -0.0870
vn 0.8564 0.5163 -0.0059
vn 0.8926 -0.0196 -0.4505
vn 0.8011 0.4915 -0.3417
vn 0.7467 0.0022 -0.6651
vn 0.6893 0.5317 -0.4921
vn 0.5111 0.0063 -0.8595
vn 0.4601 0.5442 -0.7015
vn 0.1472 0.0036 -0.9891
vn 0.1108 0.5239 -0.8446
vn -0.3018 0.0006 -0.9534
vn -0.2949 0.5181 -0.8028
vn -0.5048 -0.0089 -0.8632
vn -0.4676 0.5347 -0.7038
vn -0.9685 -0.0011 -0.2492
vn -0.8433 0.4925 -0.2152
vn -0.6129 0.4929 -0.6176
vn -0.6842 -0.0131 -0.7291
vn -0.9609 0.0000 0.2769
vn -0.8209 0.5198 0.2366
vn -0.6877 0.0000 0.7260
vn -0.5972 0.4950 0.6311
vn -0.1902 0.0016 0.9817
vn -0.1609 0.5180 0.8401
vn 0.3231 0.0151 0.9462
vn 0.3156 0.5273 0.7889
vn 0.7289 -0.0037 0.6846
vn 0.6942 0.5180 0.4998
vn 0.1855 0.9051 0.3826
vn 0.3809 0.9086 0.1717
vn 0.0781 0.9263 0.3686
vn 0.2296 0.9677 0.1039
vn 0.2247 0.9743 0.0146
vn 0.2428 0.9700 0.0126
vn 0.1352 0.9860 -0.0978
vn 0.0002 0.9834 -0.1812
vn -0.1268 0.9798 -0.1545
vn -0.1784 0.9755 -0.1289
vn -0.2940 0.9525 -0.0790
vn -0.2145 0.9625 -0.1661
vn -0.2197 0.9735 0.0639
vn -0.1642 0.9664 0.1978
vn -0.0278 0.9745 0.2225
vn 0.1662 0.9671 0.1924
vn 0.3200 0.9472 0.0208
vn 0.0258 0.9969 0.0748
vn 0.0379 0.9869 0.1570
vn 0.0863 0.9950 0.0512
vn 0.0302 0.9962 0.0816
vn 0.0148 0.9921 0.1245
vn 0.0049 0.9997 0.0246
vn -0.1217 0.9923 0.0214
vn -0.0163 0.9996 0.0221
vn 0.0396 0.9989 0.0258
vn 0.0606 0.9981 -0.0086
vn 0.0058 1.0000 0.0014
vn 0.1819 0.9796 0.0859
# 63 vertex normals

vt 0.8797 0.6359 0.0000
vt 0.8161 0.7864 0.0000
vt 0.7865 0.7693 0.0000
vt 0.8487 0.6217 0.0000
vt 0.7577 0.8772 0.0000
vt 0.7360 0.8545 0.0000
vt 0.6764 0.9336 0.0000
vt 0.6651 0.9060 0.0000
vt 0.4051 0.9757 0.0000
vt 0.4044 0.9419 0.0000
vt 0.2301 0.9531 0.0000
vt 0.2394 0.9219 0.0000
vt 0.1535 0.9192 0.0000
vt 0.1709 0.8922 0.0000
vt 0.0632 0.8390 0.0000
vt 0.0889 0.8203 0.0000
vt 0.0200 0.7388 0.0000
vt 0.0511 0.7321 0.0000
vt 0.0228 0.5224 0.0000
vt 0.0570 0.5249 0.0000
vt 0.1311 0.1484 0.0000
vt 0.1509 0.1714 0.0000
vt 0.0714 0.3110 0.0000
vt 0.0407 0.3006 0.0000
vt 0.4269 0.0215 0.0000
vt 0.4333 0.0532 0.0000
vt 0.7787 0.0200 0.0000
vt 0.7694 0.0489 0.0000
vt 0.8360 0.0606 0.0000
vt 0.8119 0.0811 0.0000
vt 0.9800 0.3566 0.0000
vt 0.9501 0.3631 0.0000
vt 0.9776 0.4213 0.0000
vt 0.9460 0.4166 0.0000
vt 0.7465 0.7474 0.0000
vt 0.8066 0.6031 0.0000
vt 0.7066 0.8260 0.0000
vt 0.6502 0.8688 0.0000
vt 0.4040 0.8977 0.0000
vt 0.2512 0.8809 0.0000
vt 0.1935 0.8570 0.0000
vt 0.1223 0.7958 0.0000
vt 0.0917 0.7233 0.0000
vt 0.1000 0.5270 0.0000
vt 0.1765 0.2011 0.0000
vt 0.1112 0.3236 0.0000
vt 0.4417 0.0943 0.0000
vt 0.7569 0.0858 0.0000
vt 0.7801 0.1075 0.0000
vt 0.9111 0.3710 0.0000
vt 0.9043 0.4081 0.0000
vt 0.2864 0.5689 0.0000
vt 0.2771 0.7331 0.0000
vt 0.4537 0.5810 0.0000
vt 0.4436 0.7459 0.0000
vt 0.6275 0.7453 0.0000
vt 0.4487 0.1878 0.0000
vt 0.2568 0.2324 0.0000
vt 0.2962 0.3987 0.0000
vt 0.4615 0.4097 0.0000
vt 0.8553 0.3772 0.0000
vt 0.7389 0.1175 0.0000
vt 0.6921 0.5672 0.0000
# 63 texture coords

o Sand_large
g Sand_large
s 1
f 120/127/114 121/128/115 122/129/116 123/130/117 
f 124/131/118 125/132/119 122/129/116 121/128/115 
f 126/133/120 127/134/121 125/132/119 124/131/118 
f 126/133/120 128/135/122 129/136/123 127/134/121 
f 130/137/124 131/138/125 129/136/123 128/135/122 
f 132/139/126 133/140/127 131/138/125 130/137/124 
f 132/139/126 134/141/128 135/142/129 133/140/127 
f 136/143/130 137/144/131 135/142/129 134/141/128 
f 136/143/130 138/145/132 139/146/133 137/144/131 
f 140/147/134 141/148/135 142/149/136 143/150/137 
f 144/151/138 145/152/139 141/148/135 140/147/134 
f 146/153/140 147/154/141 145/152/139 144/151/138 
f 148/155/142 149/156/143 147/154/141 146/153/140 
f 150/157/144 151/158/145 149/156/143 148/155/142 
f 152/159/146 153/160/147 151/158/145 150/157/144 
f 152/159/146 120/127/114 123/130/117 153/160/147 
f 123/130/117 122/129/116 154/161/148 155/162/149 
f 122/129/116 125/132/119 156/163/150 154/161/148 
f 127/134/121 157/164/151 156/163/150 125/132/119 
f 129/136/123 158/165/152 157/164/151 127/134/121 
f 131/138/125 159/166/153 158/165/152 129/136/123 
f 131/138/125 133/140/127 160/167/154 159/166/153 
f 133/140/127 135/142/129 161/168/155 160/167/154 
f 137/144/131 162/169/156 161/168/155 135/142/129 
f 139/146/133 163/170/157 162/169/156 137/144/131 
f 142/149/136 141/148/135 164/171/158 165/172/159 
f 145/152/139 166/173/160 164/171/158 141/148/135 
f 145/152/139 147/154/141 167/174/161 166/173/160 
f 149/156/143 168/175/162 167/174/161 147/154/141 
f 149/156/143 151/158/145 169/176/163 168/175/162 
f 153/160/147 170/177/164 169/176/163 151/158/145 
f 170/177/164 153/160/147 123/130/117 155/162/149 
f 162/169/156 163/170/157 171/178/165 172/179/166 
f 172/179/166 171/178/165 173/180/167 174/181/168 
f 158/165/152 159/166/153 172/179/166 174/181/168 
f 161/168/155 162/169/156 172/179/166 160/167/154 
f 160/167/154 172/179/166 159/166/153 
f 158/165/152 174/181/168 157/164/151 
f 175/182/169 154/161/148 156/163/150 157/164/151 
f 174/181/168 175/182/169 157/164/151 
f 166/173/160 176/183/170 177/184/171 164/171/158 
f 177/184/171 178/185/172 165/172/159 164/171/158 
f 176/183/170 179/186/173 178/185/172 177/184/171 
f 168/175/162 169/176/163 180/187/174 181/188/175 
f 138/145/132 143/150/137 142/149/136 139/146/133 
f 139/146/133 142/149/136 165/172/159 163/170/157 
f 163/170/157 165/172/159 178/185/172 171/178/165 
f 171/178/165 178/185/172 179/186/173 173/180/167 
f 181/188/175 180/187/174 179/186/173 176/183/170 
f 166/173/160 167/174/161 181/188/175 176/183/170 
f 168/175/162 181/188/175 167/174/161 
f 170/177/164 180/187/174 169/176/163 
f 154/161/148 175/182/169 182/189/176 155/162/149 
f 155/162/149 182/189/176 180/187/174 170/177/164 
f 173/180/167 182/189/176 175/182/169 174/181/168 
f 179/186/173 180/187/174 182/189/176 173/180/167 
# 51 polygons - 5 triangles

