# 3ds Max Wavefront OBJ Exporter v0.97b - (c)2007 guruware
# File Created: 24.01.2018 12:59:58

#
# object pillar_med
#

v  1.9203 13.8441 2.5152
v  1.9366 13.5506 2.4998
v  1.5583 13.6209 0.9151
v  1.5249 13.9131 0.9254
v  4.7632 13.8191 2.6045
v  5.2221 13.7874 3.0289
v  5.1711 13.4976 3.0239
v  4.7099 13.5298 2.6102
v  -1.7814 13.3713 5.3522
v  -1.7894 13.0815 5.3019
v  2.1211 13.1975 6.2689
v  2.1715 13.4839 6.3137
v  -4.6801 13.3710 3.1183
v  -4.6569 13.0820 3.0678
v  -5.2221 13.4598 1.0476
v  -5.1827 13.1704 1.0113
v  -4.8075 13.7792 -4.5714
v  -4.7415 13.4925 -4.5646
v  0.3302 14.0599 -4.5355
v  -0.7755 14.0974 -2.8344
v  -0.7203 13.8087 -2.8204
v  0.3632 13.7687 -4.5087
v  -0.1665 14.0827 -2.0905
v  -0.1136 13.7935 -2.0793
v  2.7414 13.5258 5.9764
v  2.6956 13.2376 5.9383
v  -3.1169 13.9374 -6.2048
v  -3.0626 13.6489 -6.1834
v  -4.1238 13.5719 -5.5558
v  -4.1862 13.8589 -5.5733
v  -0.0631 13.7354 -5.4996
v  -0.0947 14.0266 -5.5286
v  -2.1957 13.9815 -6.3137
v  -2.1462 13.6922 -6.2918
v  2.9669 1.3090 0.4800
v  2.6124 1.3456 1.8585
v  2.2573 -15.0002 -0.6643
v  2.4304 -15.0172 -1.1760
v  1.2308 -15.0103 0.0301
v  2.0193 -14.9988 -0.2184
v  2.4660 1.3487 2.8513
v  3.0288 1.3238 2.8141
v  -2.1150 1.3030 3.2593
v  -0.9920 -15.0200 -0.8728
v  -0.3468 -15.0172 0.0558
v  0.0305 1.3091 4.4074
v  -3.7119 1.3047 1.0117
v  -1.1779 -15.0192 -2.1405
v  -3.5689 1.3139 -0.4742
v  -0.8046 -15.0149 -2.7252
v  -1.9431 1.3368 -4.2764
v  0.6718 -15.0043 -3.9551
v  1.7783 1.3033 -3.3625
v  1.6710 1.3019 -2.2157
v  1.8605 -15.0205 -2.3541
v  1.7146 -15.0198 -2.6766
v  2.1742 1.3049 -1.5963
v  1.9379 -15.0191 -1.9914
v  0.8001 1.3208 4.3621
v  -0.0187 -15.0117 0.1997
v  -0.7395 1.3018 -5.2662
v  1.3792 -15.0206 -4.1104
v  0.9853 -15.0091 -4.0749
v  -1.4596 1.3264 -4.8128
v  2.0047 -15.0201 -3.2667
v  1.2851 1.3027 -4.2617
v  -0.0217 1.2999 -5.3512
v  1.6941 -15.0214 -3.9938
v  1.1507 13.9361 1.0175
v  1.7631 13.8916 2.8645
v  4.4238 13.8541 2.7849
v  4.8673 13.8293 3.1751
v  2.1132 13.5448 5.9370
v  -1.6165 13.4229 5.0070
v  -4.3610 13.4263 2.9082
v  -4.8421 13.5196 1.0156
v  -4.4489 13.8550 -4.4502
v  -0.0410 14.0682 -4.4297
v  -1.1601 14.1211 -2.8128
v  -0.4274 14.1218 -1.8087
v  2.4923 13.5909 5.6889
v  -3.9246 13.9314 -5.2988
v  -2.9974 13.9874 -5.8412
v  -2.2430 14.0049 -5.9314
v  -0.4246 14.0363 -5.3285
v  0.7909 13.9582 1.1061
v  1.6318 13.9313 3.1563
v  3.6770 13.9309 3.1817
v  4.2566 13.9014 3.4267
v  2.3204 13.6359 5.4905
v  2.0790 13.5805 5.7160
v  -1.5051 13.4578 4.7736
v  -4.1626 13.4608 2.7777
v  -4.5800 13.5608 0.9935
v  -4.2105 13.9053 -4.3697
v  -3.7505 13.9797 -5.1160
v  -2.9165 14.0213 -5.5949
v  -2.2744 14.0205 -5.6770
v  -0.7613 14.0461 -5.1244
v  -0.4784 14.0779 -4.3051
v  -1.3328 14.1317 -2.8031
v  -0.6094 14.1490 -1.6121
v  1.3700 14.0185 -1.0076
v  1.0256 14.0494 -0.8279
v  1.1931 14.0281 -0.5021
v  1.5393 14.0001 -0.6806
v  1.5868 13.7095 -0.6754
v  1.4190 13.7284 -1.0050
v  3.5691 1.3051 -0.5592
v  3.4665 1.3044 -0.9123
v  2.4214 -15.0183 -1.3757
v  2.2617 -15.0193 -1.7075
v  0.8381 14.0665 -0.7320
v  0.9927 14.0435 -0.3997
# 114 vertices

vn 0.2803 0.8384 -0.4675
vn 0.8356 0.0481 -0.5472
vn 0.9885 0.1077 0.1065
vn 0.6242 0.7803 -0.0375
vn 0.1709 0.4678 -0.8672
vn 0.8285 0.2520 0.5000
vn 0.7956 -0.1902 0.5753
vn 0.3632 -0.0255 -0.9314
vn -0.3279 0.6340 0.7004
vn -0.5092 -0.1338 0.8502
vn -0.1989 -0.1394 0.9700
vn -0.1146 0.6210 0.7754
vn -0.6113 0.6048 0.5104
vn -0.8391 -0.1415 0.5252
vn -0.7679 0.6387 0.0477
vn -0.9799 -0.1557 -0.1251
vn -0.7848 0.6136 -0.0876
vn -0.9443 -0.1742 -0.2791
vn 0.7341 0.6615 0.1532
vn 0.4517 0.8892 0.0731
vn 0.9847 0.1701 0.0388
vn 0.9900 0.1323 0.0481
vn 0.4006 0.8117 -0.4250
vn 0.6341 0.0915 -0.7678
vn 0.6228 0.4720 0.6239
vn 0.6305 -0.1724 0.7568
vn -0.3098 0.6317 -0.7106
vn -0.3539 -0.1363 -0.9253
vn -0.6593 -0.1840 -0.7290
vn -0.5888 0.5959 -0.5461
vn 0.6430 0.0128 -0.7657
vn 0.4260 0.6193 -0.6596
vn 0.1317 0.6707 -0.7299
vn 0.2939 -0.0399 -0.9550
vn 0.9761 0.0303 0.2151
vn 0.9879 -0.0056 -0.1552
vn 0.9621 -0.0634 0.2652
vn 0.9367 -0.0692 0.3432
vn 0.4507 -0.2180 0.8656
vn 0.9379 -0.0864 0.3361
vn 0.7766 -0.0643 -0.6267
vn 0.6473 -0.2074 0.7335
vn -0.6373 -0.1706 0.7515
vn -0.7743 -0.2102 0.5969
vn -0.4925 -0.2286 0.8397
vn -0.3370 -0.1752 0.9251
vn -0.9113 -0.1606 0.3790
vn -0.9689 -0.1746 0.1752
vn -0.9518 -0.1397 -0.2732
vn -0.8785 -0.1111 -0.4646
vn -0.8970 -0.1473 -0.4168
vn -0.8155 -0.1117 -0.5678
vn 0.9968 0.0798 0.0097
vn 0.9885 0.0991 -0.1144
vn 0.9698 0.0052 -0.2440
vn 0.9968 0.0081 -0.0801
vn 0.6315 0.0537 -0.7735
vn 0.6670 0.0083 -0.7450
vn 0.4887 -0.2029 0.8486
vn 0.3159 -0.2332 0.9197
vn -0.2795 -0.1158 -0.9531
vn -0.1879 -0.0931 -0.9778
vn -0.5016 -0.1156 -0.8573
vn -0.5934 -0.1549 -0.7899
vn 0.8806 0.0103 -0.4737
vn 0.7782 0.0145 -0.6279
vn 0.4339 -0.0273 -0.9006
vn 0.5934 -0.0147 -0.8048
vn 0.1054 0.9942 0.0196
vn 0.0539 0.9940 -0.0948
vn 0.0335 0.9926 -0.1165
vn 0.1218 0.9805 0.1545
vn -0.0573 0.9873 0.1480
vn -0.0764 0.9886 0.1296
vn -0.1044 0.9892 0.1026
vn -0.1722 0.9835 0.0552
vn -0.1888 0.9815 0.0320
vn 0.0267 0.9995 -0.0176
vn 0.0502 0.9984 -0.0272
vn 0.0777 0.9958 -0.0492
vn 0.1225 0.9681 0.2187
vn -0.1664 0.9829 -0.0787
vn -0.0918 0.9902 -0.1049
vn -0.0115 0.9977 -0.0671
vn 0.0037 0.9988 -0.0496
vn 0.1012 0.9948 0.0095
vn 0.0421 0.9929 -0.1114
vn 0.0170 0.9894 -0.1445
vn 0.1406 0.9750 0.1723
vn 0.1457 0.9570 0.2509
vn -0.0634 0.9871 0.1471
vn -0.0774 0.9886 0.1288
vn -0.1036 0.9892 0.1041
vn -0.1726 0.9833 0.0575
vn -0.1889 0.9813 0.0362
vn -0.1641 0.9833 -0.0787
vn -0.0821 0.9907 -0.1081
vn -0.0052 0.9978 -0.0653
vn 0.0042 0.9988 -0.0487
vn 0.0214 0.9995 -0.0251
vn 0.0481 0.9983 -0.0326
vn 0.0790 0.9956 -0.0504
vn 0.4878 0.6699 -0.5598
vn 0.0817 0.9960 -0.0370
vn 0.0916 0.9944 0.0525
vn 0.7004 0.7134 -0.0212
vn 0.9860 0.1378 0.0940
vn 0.6060 0.0863 -0.7908
vn 0.9890 0.0436 0.1411
vn 0.6490 0.0440 -0.7595
vn 0.9855 -0.0737 0.1528
vn 0.6500 -0.0068 -0.7599
vn 0.0843 0.9957 -0.0371
vn 0.0894 0.9942 0.0600
# 114 vertex normals

vt 0.3868 0.0843 0.0000
vt 0.3880 0.0952 0.0000
vt 0.3451 0.1058 0.0000
vt 0.3420 0.0970 0.0000
vt 0.4621 0.0692 0.0000
vt 0.4701 0.0783 0.0000
vt 0.4694 0.0810 0.0000
vt 0.4576 0.0783 0.0000
vt 0.6936 0.0928 0.0000
vt 0.6934 0.1008 0.0000
vt 0.5870 0.0818 0.0000
vt 0.5863 0.0744 0.0000
vt 0.7895 0.1129 0.0000
vt 0.7890 0.1206 0.0000
vt 0.8443 0.1266 0.0000
vt 0.8440 0.1350 0.0000
vt 0.9934 0.1680 0.0000
vt 0.9917 0.1767 0.0000
vt 0.1644 0.1515 0.0000
vt 0.2124 0.1237 0.0000
vt 0.2170 0.1323 0.0000
vt 0.1692 0.1575 0.0000
vt 0.2401 0.1187 0.0000
vt 0.2426 0.1270 0.0000
vt 0.5719 0.0735 0.0000
vt 0.5720 0.0816 0.0000
vt 0.0623 0.1850 0.0000
vt 0.0651 0.1922 0.0000
vt 0.0352 0.2051 0.0000
vt 0.0329 0.1979 0.0000
vt 0.0065 0.2187 0.0000
vt 0.0031 0.2083 0.0000
vt 0.1431 0.1670 0.0000
vt 0.1398 0.1606 0.0000
vt 0.0838 0.1775 0.0000
vt 0.0870 0.1846 0.0000
vt 0.4491 0.4327 0.0000
vt 0.4862 0.4207 0.0000
vt 0.5185 0.8780 0.0000
vt 0.5049 0.8827 0.0000
vt 0.5510 0.8771 0.0000
vt 0.5310 0.8759 0.0000
vt 0.5042 0.4179 0.0000
vt 0.5068 0.4182 0.0000
vt 0.6671 0.4289 0.0000
vt 0.6236 0.8919 0.0000
vt 0.5941 0.8836 0.0000
vt 0.6021 0.4177 0.0000
vt 0.7394 0.4470 0.0000
vt 0.6561 0.9031 0.0000
vt 0.7769 0.4607 0.0000
vt 0.6734 0.9099 0.0000
vt 0.8807 0.5036 0.0000
vt 0.7189 0.9316 0.0000
vt 0.3186 0.4707 0.0000
vt 0.3480 0.4604 0.0000
vt 0.4713 0.8943 0.0000
vt 0.4631 0.8974 0.0000
vt 0.3693 0.4547 0.0000
vt 0.4803 0.8918 0.0000
vt 0.5814 0.4159 0.0000
vt 0.5842 0.8801 0.0000
vt 0.2288 0.4985 0.0000
vt 0.4209 0.9112 0.0000
vt 0.4109 0.9139 0.0000
vt 0.2064 0.5059 0.0000
vt 0.4025 0.9166 0.0000
vt 0.1879 0.5133 0.0000
vt 0.4491 0.9025 0.0000
vt 0.2924 0.4792 0.0000
vt 0.2479 0.4925 0.0000
vt 0.4294 0.9087 0.0000
vt 0.3387 0.0862 0.0000
vt 0.3906 0.0724 0.0000
vt 0.4630 0.0633 0.0000
vt 0.4752 0.0726 0.0000
vt 0.5874 0.0654 0.0000
vt 0.6950 0.0827 0.0000
vt 0.7906 0.1032 0.0000
vt 0.8450 0.1159 0.0000
vt 0.9916 0.1564 0.0000
vt 0.1609 0.1433 0.0000
vt 0.2067 0.1143 0.0000
vt 0.2397 0.1077 0.0000
vt 0.5720 0.0635 0.0000
vt 0.0310 0.1877 0.0000
vt 0.0597 0.1753 0.0000
vt 0.0039 0.1954 0.0000
vt 0.0814 0.1677 0.0000
vt 0.1343 0.1529 0.0000
vt 0.3357 0.0764 0.0000
vt 0.3928 0.0635 0.0000
vt 0.4557 0.0487 0.0000
vt 0.4832 0.0592 0.0000
vt 0.5718 0.0567 0.0000
vt 0.5879 0.0599 0.0000
vt 0.6960 0.0759 0.0000
vt 0.7915 0.0971 0.0000
vt 0.8457 0.1087 0.0000
vt 0.9907 0.1489 0.0000
vt 0.0047 0.1876 0.0000
vt 0.0296 0.1808 0.0000
vt 0.0577 0.1687 0.0000
vt 0.0797 0.1610 0.0000
vt 0.1288 0.1445 0.0000
vt 0.1586 0.1324 0.0000
vt 0.2040 0.1104 0.0000
vt 0.2394 0.1001 0.0000
vt 0.2914 0.1122 0.0000
vt 0.2882 0.1028 0.0000
vt 0.2988 0.1006 0.0000
vt 0.3000 0.1105 0.0000
vt 0.3032 0.1174 0.0000
vt 0.2934 0.1191 0.0000
vt 0.4183 0.4426 0.0000
vt 0.4086 0.4455 0.0000
vt 0.5009 0.8859 0.0000
vt 0.4914 0.8892 0.0000
vt 0.2864 0.0976 0.0000
vt 0.2981 0.0948 0.0000
# 120 texture coords

o pillar_med
g pillar_med
s 2
f 1/1/1 2/2/2 3/3/3 4/4/4 
f 5/5/5 6/6/6 7/7/7 8/8/8 
f 9/9/9 10/10/10 11/11/11 12/12/12 
f 13/13/13 14/14/14 10/10/10 9/9/9 
f 15/15/15 16/16/16 14/14/14 13/13/13 
f 17/17/17 18/18/18 16/16/16 15/15/15 
f 19/19/19 20/20/20 21/21/21 22/22/22 
f 23/23/23 24/24/24 21/21/21 20/20/20 
f 25/25/25 26/26/26 7/7/7 6/6/6 
f 12/12/12 11/11/11 26/26/26 25/25/25 
f 1/1/1 5/5/5 8/8/8 2/2/2 
f 27/27/27 28/28/28 29/29/29 30/30/30 
f 30/30/30 29/29/29 18/31/18 17/32/17 
f 31/33/31 32/34/32 19/19/19 22/22/22 
f 33/35/33 34/36/34 28/28/28 27/27/27 
f 35/37/35 36/38/36 37/39/37 38/40/38 
f 39/41/39 40/42/40 41/43/41 42/44/42 
f 43/45/43 44/46/44 45/47/45 46/48/46 
f 47/49/47 48/50/48 44/46/44 43/45/43 
f 49/51/49 50/52/50 48/50/48 47/49/47 
f 51/53/51 52/54/52 50/52/50 49/51/49 
f 53/55/53 54/56/54 55/57/55 56/58/56 
f 57/59/57 58/60/58 55/57/55 54/56/54 
f 59/61/59 60/62/60 39/41/39 42/44/42 
f 46/48/46 45/47/45 60/62/60 59/61/59 
f 36/38/36 41/43/41 40/42/40 37/39/37 
f 61/63/61 62/64/62 63/65/63 64/66/64 
f 64/66/64 63/65/63 52/67/52 51/68/51 
f 65/69/65 66/70/66 53/55/53 56/58/56 
f 67/71/67 68/72/68 62/64/62 61/63/61 
f 1/1/1 4/4/4 69/73/69 70/74/70 
f 5/5/5 71/75/71 72/76/72 6/6/6 
f 9/9/9 12/12/12 73/77/73 74/78/74 
f 9/9/9 74/78/74 75/79/75 13/13/13 
f 15/15/15 13/13/13 75/79/75 76/80/76 
f 15/15/15 76/80/76 77/81/77 17/17/17 
f 20/20/20 19/19/19 78/82/78 79/83/79 
f 20/20/20 79/83/79 80/84/80 23/23/23 
f 25/25/25 6/6/6 72/76/72 81/85/81 
f 25/25/25 81/85/81 73/77/73 12/12/12 
f 1/1/1 70/74/70 71/75/71 5/5/5 
f 27/27/27 30/30/30 82/86/82 83/87/83 
f 17/32/17 77/88/77 82/86/82 30/30/30 
f 27/27/27 83/87/83 84/89/84 33/35/33 
f 85/90/85 78/82/78 19/19/19 32/34/32 
f 66/70/66 65/69/65 68/72/68 67/71/67 
f 32/34/32 31/33/31 34/36/34 33/35/33 
f 85/90/85 32/34/32 33/35/33 84/89/84 
f 24/24/24 57/59/57 54/56/54 21/21/21 
f 22/22/22 21/21/21 54/56/54 53/55/53 
f 66/70/66 31/33/31 22/22/22 53/55/53 
f 31/33/31 66/70/66 67/71/67 34/36/34 
f 34/36/34 67/71/67 61/63/61 28/28/28 
f 28/28/28 61/63/61 64/66/64 29/29/29 
f 29/29/29 64/66/64 51/68/51 18/31/18 
f 18/18/18 51/53/51 49/51/49 16/16/16 
f 16/16/16 49/51/49 47/49/47 14/14/14 
f 14/14/14 47/49/47 43/45/43 10/10/10 
f 10/10/10 43/45/43 46/48/46 11/11/11 
f 11/11/11 46/48/46 59/61/59 26/26/26 
f 26/26/26 59/61/59 42/44/42 7/7/7 
f 8/8/8 7/7/7 42/44/42 41/43/41 
f 2/2/2 8/8/8 41/43/41 36/38/36 
f 3/3/3 2/2/2 36/38/36 35/37/35 
f 70/74/70 69/73/69 86/91/86 87/92/87 
f 70/74/70 87/92/87 88/93/88 71/75/71 
f 71/75/71 88/93/88 89/94/89 72/76/72 
f 81/85/81 72/76/72 89/94/89 90/95/90 
f 81/85/81 90/95/90 91/96/91 73/77/73 
f 74/78/74 73/77/73 91/96/91 92/97/92 
f 74/78/74 92/97/92 93/98/93 75/79/75 
f 76/80/76 75/79/75 93/98/93 94/99/94 
f 76/80/76 94/99/94 95/100/95 77/81/77 
f 77/88/77 95/101/95 96/102/96 82/86/82 
f 83/87/83 82/86/82 96/102/96 97/103/97 
f 83/87/83 97/103/97 98/104/98 84/89/84 
f 99/105/99 85/90/85 84/89/84 98/104/98 
f 99/105/99 100/106/100 78/82/78 85/90/85 
f 79/83/79 78/82/78 100/106/100 101/107/101 
f 79/83/79 101/107/101 102/108/102 80/84/80 
f 103/109/103 104/110/104 105/111/105 106/112/106 
f 106/112/106 107/113/107 108/114/108 103/109/103 
f 107/113/107 109/115/109 110/116/110 108/114/108 
f 109/115/109 111/117/111 112/118/112 110/116/110 
f 105/111/105 104/110/104 113/119/113 114/120/114 
f 4/4/4 3/3/3 107/113/107 106/112/106 
f 103/109/103 108/114/108 24/24/24 23/23/23 
f 35/37/35 38/40/38 111/117/111 109/115/109 
f 57/59/57 110/116/110 112/118/112 58/60/58 
f 4/4/4 106/112/106 105/111/105 69/73/69 
f 23/23/23 80/84/80 104/110/104 103/109/103 
f 108/114/108 110/116/110 57/59/57 24/24/24 
f 3/3/3 35/37/35 109/115/109 107/113/107 
f 80/84/80 102/108/102 113/119/113 104/110/104 
f 69/73/69 105/111/105 114/120/114 86/91/86 
# 95 polygons

#
# object sand_med
#

v  1.0369 14.4115 -0.9808
v  1.3290 14.3746 -0.3765
v  1.2910 13.9645 -0.3675
v  0.9140 14.0062 -1.0379
v  -0.3588 14.0676 -1.8829
v  -0.3273 14.4775 -1.9030
v  -1.0174 14.0684 -2.8208
v  -0.9941 14.4790 -2.8319
v  -0.0208 14.0238 -4.4355
v  -0.0108 14.4351 -4.4442
v  -0.3840 13.9912 -5.3531
v  -0.3821 14.4023 -5.3726
v  -2.2299 13.9545 -6.0374
v  -2.2384 14.3647 -6.0682
v  -3.0299 13.9299 -5.9401
v  -3.0651 14.3374 -5.9825
v  -3.9971 13.8675 -5.3748
v  -4.0661 14.2714 -5.4066
v  -4.5483 13.7901 -4.4838
v  -4.6289 14.1933 -4.4832
v  -4.8357 14.0148 -1.4745
v  -4.7617 13.6116 -1.5085
v  -4.9434 13.4597 1.0241
v  -5.0093 13.8650 1.0502
v  -4.4555 13.3661 2.9704
v  -4.5012 13.7730 3.0108
v  -1.6615 13.3650 5.1010
v  -1.6930 13.7718 5.1541
v  2.0593 13.4820 5.9364
v  2.0484 13.8875 6.0035
v  2.5587 13.5297 5.7655
v  2.5899 13.9307 5.8484
v  4.5739 13.7930 3.3733
v  4.6201 14.1966 3.4104
v  4.2918 13.8238 2.8550
v  4.3115 14.2321 2.8163
v  1.7951 13.8380 2.7934
v  1.8224 14.2458 2.7603
v  1.2063 13.8888 1.0038
v  1.2505 14.2976 1.0137
v  0.9932 14.6408 -0.5773
v  -0.8446 14.7173 -1.5898
v  -1.3862 14.7092 -2.8226
v  -0.4368 14.6534 -4.4856
v  -0.6899 14.6284 -5.0675
v  -2.3034 14.6068 -5.6184
v  -2.9403 14.5994 -5.5540
v  -3.7787 14.5516 -5.0849
v  -4.2282 14.4810 -4.3365
v  -4.5731 14.1477 1.0239
v  -4.4140 14.3014 -1.4485
v  -4.1478 14.0495 2.7831
v  -1.5065 14.0491 4.7593
v  1.9786 14.1696 5.6018
v  2.2952 14.2155 5.5274
v  4.2256 14.4542 3.5185
v  4.0444 14.4722 3.1308
v  1.5994 14.4954 3.0669
v  0.8016 14.5490 1.0830
v  -2.8000 14.6792 2.3201
v  -3.1984 14.7883 0.7848
v  -3.4163 14.8890 -1.4627
v  0.2541 14.6986 3.8000
v  -0.5788 14.8399 1.6326
v  -1.1787 14.9090 0.3565
v  -1.9156 15.0056 -1.5575
v  -2.4361 15.0214 -3.3819
v  -3.5044 14.8665 -3.7825
# 68 vertices

vn 0.7142 0.3547 -0.6034
vn 0.9215 0.3627 -0.1391
vn 0.9715 -0.0948 -0.2173
vn 0.6978 -0.1117 -0.7076
vn 0.6938 -0.0883 -0.7147
vn 0.5826 0.5583 -0.5907
vn 0.9978 -0.0576 -0.0329
vn 0.8184 0.5734 -0.0375
vn 0.9960 -0.0223 0.0862
vn 0.8877 0.4563 0.0615
vn 0.6998 -0.0372 -0.7134
vn 0.6156 0.4487 -0.6478
vn 0.1189 -0.0720 -0.9903
vn 0.1011 0.4543 -0.8851
vn -0.3109 -0.1250 -0.9422
vn -0.2979 0.4177 -0.8584
vn -0.6793 -0.1723 -0.7134
vn -0.6657 0.3711 -0.6474
vn -0.9312 -0.1857 -0.3136
vn -0.8977 0.3551 -0.2607
vn -0.9203 0.3892 -0.0402
vn -0.9815 -0.1733 -0.0808
vn -0.9833 -0.1648 0.0773
vn -0.9184 0.3813 0.1053
vn -0.8275 -0.1466 0.5419
vn -0.7705 0.3658 0.5220
vn -0.4157 -0.1492 0.8972
vn -0.3968 0.3850 0.8333
vn 0.0586 -0.1615 0.9851
vn 0.0118 0.3528 0.9356
vn 0.5626 -0.2091 0.7998
vn 0.4964 0.3401 0.7987
vn 0.9885 -0.1215 0.0901
vn 0.9275 0.3579 0.1074
vn 0.5270 -0.1055 -0.8433
vn 0.4972 0.3991 -0.7704
vn 0.5872 -0.1046 -0.8027
vn 0.5186 0.5213 -0.6777
vn 0.9858 -0.1035 -0.1319
vn 0.8686 0.4868 -0.0925
vn 0.4248 0.8910 -0.1602
vn 0.2611 0.9292 -0.2616
vn 0.3854 0.9220 -0.0375
vn 0.2949 0.9553 -0.0235
vn 0.2185 0.9348 -0.2799
vn 0.0185 0.9615 -0.2740
vn -0.1384 0.9282 -0.3454
vn -0.3427 0.8961 -0.2823
vn -0.4978 0.8620 -0.0954
vn -0.4791 0.8727 0.0943
vn -0.5352 0.8445 0.0181
vn -0.4052 0.8669 0.2905
vn -0.2123 0.8798 0.4254
vn -0.0791 0.8708 0.4852
vn 0.0461 0.9438 0.3274
vn 0.4185 0.8805 0.2225
vn 0.1847 0.9429 -0.2772
vn 0.1533 0.9548 -0.2547
vn 0.3342 0.9425 0.0017
vn -0.2114 0.9545 0.2106
vn -0.2358 0.9669 0.0974
vn -0.3016 0.9527 0.0374
vn -0.0179 0.9809 0.1938
vn 0.0780 0.9966 0.0262
vn 0.0373 0.9986 0.0365
vn 0.0887 0.9961 0.0010
vn 0.0308 0.9986 -0.0427
vn -0.2637 0.9601 -0.0926
# 68 vertex normals

vt 0.4952 0.0684 0.0000
vt 0.4522 0.0710 0.0000
vt 0.4453 0.0461 0.0000
vt 0.5050 0.0436 0.0000
vt 0.6029 0.0831 0.0000
vt 0.5985 0.1106 0.0000
vt 0.6720 0.0877 0.0000
vt 0.6804 0.1131 0.0000
vt 0.7667 0.0000 0.0000
vt 0.7730 0.0229 0.0000
vt 0.8463 0.0029 0.0000
vt 0.8364 0.0245 0.0000
vt 0.9474 0.1074 0.0000
vt 0.9250 0.1208 0.0000
vt 0.9674 0.1697 0.0000
vt 0.9415 0.1724 0.0000
vt 0.9582 0.2561 0.0000
vt 0.9338 0.2479 0.0000
vt 0.9155 0.3260 0.0000
vt 0.8965 0.3083 0.0000
vt 0.7261 0.4198 0.0000
vt 0.7421 0.4430 0.0000
vt 0.5886 0.5330 0.0000
vt 0.5794 0.5078 0.0000
vt 0.4461 0.5641 0.0000
vt 0.4483 0.5393 0.0000
vt 0.2150 0.4734 0.0000
vt 0.2293 0.4511 0.0000
vt 0.0206 0.2881 0.0000
vt 0.0425 0.2746 0.0000
vt 0.0074 0.2420 0.0000
vt 0.0324 0.2411 0.0000
vt 0.0622 0.0213 0.0000
vt 0.0761 0.0350 0.0000
vt 0.1165 0.0046 0.0000
vt 0.1151 0.0260 0.0000
vt 0.2460 0.1147 0.0000
vt 0.2413 0.1391 0.0000
vt 0.3607 0.0881 0.0000
vt 0.3683 0.1149 0.0000
vt 0.4750 0.0881 0.0000
vt 0.5994 0.1559 0.0000
vt 0.6919 0.1449 0.0000
vt 0.7822 0.0508 0.0000
vt 0.8230 0.0515 0.0000
vt 0.8960 0.1374 0.0000
vt 0.9081 0.1759 0.0000
vt 0.9025 0.2371 0.0000
vt 0.8723 0.2853 0.0000
vt 0.5669 0.4759 0.0000
vt 0.7085 0.3895 0.0000
vt 0.4507 0.5074 0.0000
vt 0.2473 0.4221 0.0000
vt 0.0718 0.2604 0.0000
vt 0.0653 0.2430 0.0000
vt 0.0904 0.0599 0.0000
vt 0.1145 0.0555 0.0000
vt 0.2334 0.1718 0.0000
vt 0.3800 0.1494 0.0000
vt 0.4349 0.4043 0.0000
vt 0.5357 0.3773 0.0000
vt 0.6737 0.3186 0.0000
vt 0.2448 0.2785 0.0000
vt 0.3982 0.2512 0.0000
vt 0.4942 0.2445 0.0000
vt 0.6320 0.2244 0.0000
vt 0.7567 0.2005 0.0000
vt 0.8135 0.2541 0.0000
# 68 texture coords

o sand_med
g sand_med
s 1
f 115/121/115 116/122/116 117/123/117 118/124/118 
f 118/124/118 119/125/119 120/126/120 115/121/115 
f 121/127/121 122/128/122 120/126/120 119/125/119 
f 123/129/123 124/130/124 122/128/122 121/127/121 
f 125/131/125 126/132/126 124/130/124 123/129/123 
f 127/133/127 128/134/128 126/132/126 125/131/125 
f 129/135/129 130/136/130 128/134/128 127/133/127 
f 131/137/131 132/138/132 130/136/130 129/135/129 
f 131/137/131 133/139/133 134/140/134 132/138/132 
f 135/141/135 136/142/136 137/143/137 138/144/138 
f 139/145/139 140/146/140 138/144/138 137/143/137 
f 141/147/141 142/148/142 140/146/140 139/145/139 
f 143/149/143 144/150/144 142/148/142 141/147/141 
f 145/151/145 146/152/146 144/150/144 143/149/143 
f 147/153/147 148/154/148 146/152/146 145/151/145 
f 149/155/149 150/156/150 148/154/148 147/153/147 
f 149/155/149 151/157/151 152/158/152 150/156/150 
f 153/159/153 154/160/154 152/158/152 151/157/151 
f 155/161/155 116/122/116 115/121/115 
f 155/161/155 115/121/115 120/126/120 156/162/156 
f 122/128/122 157/163/157 156/162/156 120/126/120 
f 122/128/122 124/130/124 158/164/158 157/163/157 
f 126/132/126 159/165/159 158/164/158 124/130/124 
f 128/134/128 160/166/160 159/165/159 126/132/126 
f 130/136/130 161/167/161 160/166/160 128/134/128 
f 130/136/130 132/138/132 162/168/162 161/167/161 
f 134/140/134 163/169/163 162/168/162 132/138/132 
f 135/141/135 138/144/138 164/170/164 165/171/165 
f 138/144/138 140/146/140 166/172/166 164/170/164 
f 142/148/142 167/173/167 166/172/166 140/146/140 
f 142/148/142 144/150/144 168/174/168 167/173/167 
f 144/150/144 146/152/146 169/175/169 168/174/168 
f 146/152/146 148/154/148 170/176/170 169/175/169 
f 148/154/148 150/156/150 171/177/171 170/176/170 
f 152/158/152 172/178/172 171/177/171 150/156/150 
f 152/158/152 154/160/154 173/179/173 172/178/172 
f 166/172/166 167/173/167 174/180/174 
f 174/180/174 175/181/175 164/170/164 166/172/166 
f 175/181/175 176/182/176 165/171/165 164/170/164 
f 168/174/168 177/183/177 167/173/167 
f 172/178/172 177/183/177 170/176/170 171/177/171 
f 178/184/178 177/183/177 172/178/172 173/179/173 
f 173/179/173 155/161/155 179/185/179 178/184/178 
f 179/185/179 155/161/155 156/162/156 180/186/180 
f 158/164/158 159/165/159 181/187/181 157/163/157 
f 182/188/182 162/168/162 163/169/163 
f 160/166/160 161/167/161 181/187/181 159/165/159 
f 174/180/174 177/183/177 178/184/178 
f 179/185/179 175/181/175 174/180/174 178/184/178 
f 175/181/175 179/185/179 180/186/180 176/182/176 
f 161/167/161 162/168/162 182/188/182 181/187/181 
f 174/180/174 167/173/167 177/183/177 
f 157/163/157 181/187/181 180/186/180 156/162/156 
f 176/182/176 180/186/180 181/187/181 182/188/182 
f 165/171/165 176/182/176 182/188/182 163/169/163 
f 135/141/135 165/171/165 163/169/163 134/140/134 
f 136/142/136 135/141/135 134/140/134 133/139/133 
f 177/183/177 168/174/168 169/175/169 170/176/170 
f 116/122/116 155/161/155 173/179/173 154/160/154 
f 117/123/117 116/122/116 154/160/154 153/159/153 
# 54 polygons - 6 triangles

