# 3ds Max Wavefront OBJ Exporter v0.97b - (c)2007 guruware
# File Created: 24.01.2018 13:04:14

#
# object pillar_small
#

v  -0.2757 10.3566 3.4484
v  1.0307 10.6152 3.4928
v  -2.7807 10.3247 -0.4815
v  -3.5584 10.3247 0.6224
v  0.9458 10.4388 3.9653
v  -0.3933 10.2964 3.9550
v  -0.3174 9.6337 4.0597
v  1.0224 9.7761 4.0693
v  -3.4356 9.6503 1.3292
v  -3.4375 10.3247 1.3990
v  2.0713 11.0213 2.3704
v  -1.4742 10.3247 -1.2323
v  2.5730 10.3681 2.7257
v  2.4978 11.0365 2.6760
v  3.9441 10.1692 -2.5878
v  3.9593 10.8424 -2.6474
v  3.6621 11.0230 0.5903
v  3.7752 10.3601 0.6453
v  0.1906 10.5033 -3.1989
v  3.1395 11.0407 0.6246
v  3.4576 10.9571 -2.6119
v  2.2287 10.7306 -4.7729
v  3.0319 10.1222 -5.1150
v  3.1216 10.7963 -5.1118
v  3.1781 4.9874 3.1260
v  1.5827 4.9302 4.8305
v  1.1207 -9.5907 0.2671
v  1.8533 -9.9369 -0.6433
v  4.6871 5.0136 1.0891
v  1.7352 -10.0491 -2.1653
v  -3.4196 4.1340 0.7580
v  -4.0162 -7.9676 0.2564
v  0.2871 -9.3094 0.7705
v  0.2382 4.7876 4.8259
v  2.2912 4.3518 -5.1415
v  3.8209 4.7127 -2.1046
v  0.2970 -10.3053 -3.7516
v  -2.1170 -10.6123 -4.5391
v  -0.7338 -11.3604 -0.5490
v  0.3441 -11.3312 -0.6351
v  -3.7008 -10.7162 -0.7358
v  1.0894 -11.2046 -1.1884
v  1.0568 -11.2627 -2.0232
v  -3.5564 9.6503 0.5526
v  -2.7788 9.6503 -0.5513
v  2.2306 10.0562 -4.8428
v  0.1926 9.8289 -3.2688
v  -1.4722 9.6503 -1.3021
v  0.0652 -11.4515 -3.0886
v  -2.3488 -11.7586 -3.8760
v  -3.0323 -11.8777 -2.2592
v  -0.8846 -12.2708 -1.8847
v  0.3762 -11.9721 -1.6022
v  -4.1648 -10.0906 -1.4165
v  -4.0738 -11.1587 -3.1134
v  -2.9579 -10.9462 -4.0736
v  -2.9011 -10.3802 -4.5109
v  1.5071 4.5839 -5.1134
v  -3.4939 4.1755 -0.1555
v  -4.5237 -7.8573 -1.7237
v  -4.1861 -9.2995 -3.4451
v  -1.6221 4.3669 -3.1459
# 62 vertices

vn -0.0874 0.9943 0.0615
vn -0.1395 0.9884 0.0604
vn -0.2325 0.9689 -0.0843
vn -0.2667 0.9637 -0.0083
vn 0.2765 0.4900 0.8267
vn -0.4766 0.4566 0.7513
vn -0.5950 0.0109 0.8036
vn 0.4580 0.1673 0.8731
vn -0.7663 -0.0250 0.6421
vn -0.5349 0.6698 0.5151
vn -0.1353 0.9908 -0.0033
vn -0.2243 0.9683 -0.1095
vn 0.7629 0.1605 0.6263
vn 0.5905 0.5943 0.5460
vn 0.9696 -0.0111 -0.2443
vn 0.8003 0.5876 -0.1194
vn 0.7812 0.5970 0.1824
vn 0.9755 0.1116 0.1896
vn -0.2526 0.9526 -0.1695
vn -0.1063 0.9936 -0.0395
vn -0.0865 0.9955 -0.0383
vn -0.2246 0.9475 -0.2277
vn 0.8099 -0.0688 -0.5825
vn 0.6146 0.6320 -0.4721
vn 0.8172 -0.1064 0.5665
vn 0.5139 -0.1334 0.8474
vn 0.5782 -0.2818 0.7657
vn 0.8471 -0.2439 0.4722
vn 0.9956 -0.0852 0.0384
vn 0.9657 -0.1820 -0.1853
vn -0.6772 -0.0864 0.7307
vn -0.6189 -0.1353 0.7737
vn -0.2917 -0.2268 0.9292
vn -0.4188 -0.1251 0.8994
vn 0.6287 -0.1242 -0.7676
vn 0.8819 -0.1034 -0.4600
vn 0.7733 -0.1729 -0.6100
vn 0.4962 -0.1722 -0.8510
vn -0.1519 -0.5678 0.8091
vn 0.2658 -0.6597 0.7029
vn -0.4102 -0.5142 0.7533
vn 0.7290 -0.5994 0.3306
vn 0.7119 -0.5998 -0.3653
vn -0.9294 0.0454 -0.3662
vn -0.7868 0.1052 -0.6082
vn -0.4870 0.1171 -0.8655
vn -0.6221 0.1538 -0.7676
vn -0.6549 0.2293 -0.7201
vn 0.3784 -0.7249 -0.5756
vn 0.0268 -0.8326 -0.5533
vn -0.3265 -0.9293 0.1725
vn -0.0272 -0.9883 0.1502
vn 0.3380 -0.9398 0.0505
vn -0.9542 -0.2494 0.1651
vn -0.8637 -0.4582 -0.2098
vn -0.5512 -0.5069 -0.6628
vn -0.4273 0.0595 -0.9021
vn -0.4427 0.0980 -0.8913
vn -0.9558 0.1051 -0.2745
vn -0.9560 0.1137 -0.2705
vn -0.6944 0.1142 -0.7105
vn -0.7005 0.1384 -0.7001
# 62 vertex normals

vt 0.0309 0.0478 0.0000
vt 0.0581 0.0200 0.0000
vt 0.0597 0.1808 0.0000
vt 0.0207 0.1753 0.0000
vt 0.5825 0.2216 0.0000
vt 0.6206 0.2402 0.0000
vt 0.6148 0.2584 0.0000
vt 0.5768 0.2404 0.0000
vt 0.7284 0.3057 0.0000
vt 0.7280 0.2870 0.0000
vt 0.1043 0.0214 0.0000
vt 0.1040 0.1728 0.0000
vt 0.5202 0.2104 0.0000
vt 0.5239 0.1933 0.0000
vt 0.3543 0.1932 0.0000
vt 0.3543 0.1738 0.0000
vt 0.4520 0.1806 0.0000
vt 0.4489 0.1995 0.0000
vt 0.1821 0.1756 0.0000
vt 0.1631 0.0349 0.0000
vt 0.2387 0.0937 0.0000
vt 0.2624 0.1640 0.0000
vt 0.2768 0.1911 0.0000
vt 0.2805 0.1788 0.0000
vt 0.4847 0.3641 0.0000
vt 0.5370 0.3760 0.0000
vt 0.3789 0.7905 0.0000
vt 0.3444 0.7944 0.0000
vt 0.4261 0.3539 0.0000
vt 0.3030 0.7953 0.0000
vt 0.6861 0.4671 0.0000
vt 0.5369 0.7936 0.0000
vt 0.4083 0.7861 0.0000
vt 0.5588 0.3869 0.0000
vt 0.2502 0.3572 0.0000
vt 0.3408 0.3539 0.0000
vt 0.2424 0.7997 0.0000
vt 0.1732 0.8090 0.0000
vt 0.4092 0.8633 0.0000
vt 0.3695 0.8506 0.0000
vt 0.5060 0.8732 0.0000
vt 0.3334 0.8380 0.0000
vt 0.2988 0.8359 0.0000
vt 0.6266 0.2277 0.0000
vt 0.7489 0.2848 0.0000
vt 0.5806 0.2074 0.0000
vt 0.5291 0.1807 0.0000
vt 0.4592 0.1679 0.0000
vt 0.3527 0.1598 0.0000
vt 0.7500 0.3117 0.0000
vt 0.0200 0.1964 0.0000
vt 0.0602 0.1990 0.0000
vt 0.2549 0.1884 0.0000
vt 0.1809 0.1951 0.0000
vt 0.1050 0.1950 0.0000
vt 0.2483 0.8392 0.0000
vt 0.1677 0.8477 0.0000
vt 0.0896 0.8535 0.0000
vt 0.0923 0.9135 0.0000
vt 0.0469 0.9263 0.0000
vt 0.0332 0.8328 0.0000
vt 0.1408 0.8571 0.0000
vt 0.1370 0.9356 0.0000
vt 0.1100 0.9735 0.0000
vt 0.0911 0.9491 0.0000
vt 0.0593 0.9602 0.0000
vt 0.0830 0.9800 0.0000
vt 0.0470 0.7990 0.0000
vt 0.1010 0.8172 0.0000
vt 0.1437 0.8223 0.0000
vt 0.1518 0.8013 0.0000
vt 0.2329 0.3503 0.0000
vt 0.7109 0.4765 0.0000
vt 0.5888 0.8203 0.0000
vt 0.5390 0.8704 0.0000
vt 0.0502 0.7253 0.0000
vt 0.1034 0.7670 0.0000
vt 0.1292 0.3591 0.0000
vt 0.0264 0.3623 0.0000
# 79 texture coords

o pillar_small
g pillar_small
s 3
f 1/1/1 2/2/2 3/3/3 4/4/4 
f 5/5/5 6/6/6 7/7/7 8/8/8 
f 9/9/9 7/7/7 6/6/6 10/10/10 
f 2/2/2 11/11/11 12/12/12 3/3/3 
f 5/5/5 8/8/8 13/13/13 14/14/14 
f 15/15/15 16/16/16 17/17/17 18/18/18 
f 19/19/19 20/20/20 21/21/21 22/22/22 
f 15/15/15 23/23/23 24/24/24 16/16/16 
f 13/13/13 18/18/18 17/17/17 14/14/14 
f 12/12/12 11/11/11 20/20/20 19/19/19 
f 25/25/25 26/26/26 27/27/27 28/28/28 
f 29/29/29 25/25/25 28/28/28 30/30/30 
f 31/31/31 32/32/32 33/33/33 34/34/34 
f 26/26/26 34/34/34 33/33/33 27/27/27 
f 35/35/35 36/36/36 37/37/37 38/38/38 
f 36/36/36 29/29/29 30/30/30 37/37/37 
f 33/33/33 39/39/39 40/40/40 27/27/27 
f 33/33/33 32/32/32 41/41/41 39/39/39 
f 30/30/30 28/28/28 42/42/42 43/43/43 
f 40/40/40 42/42/42 28/28/28 27/27/27 
f 9/9/9 31/31/31 34/34/34 7/7/7 
f 7/7/7 34/34/34 26/26/26 8/8/8 
f 8/8/8 26/26/26 25/25/25 13/13/13 
f 18/18/18 13/13/13 25/25/25 29/29/29 
f 36/36/36 15/15/15 18/18/18 29/29/29 
f 23/23/23 15/15/15 36/36/36 35/35/35 
f 1/44/1 4/45/4 10/10/10 6/6/6 
f 5/5/5 2/46/2 1/44/1 6/6/6 
f 14/14/14 11/47/11 2/46/2 5/5/5 
f 20/48/20 11/47/11 14/14/14 17/17/17 
f 17/17/17 16/16/16 21/49/21 20/48/20 
f 24/24/24 22/22/22 21/49/21 16/16/16 
f 9/9/9 10/10/10 4/45/4 44/50/44 
f 44/51/44 4/4/4 3/3/3 45/52/45 
f 19/19/19 22/22/22 46/53/46 47/54/47 
f 22/22/22 24/24/24 23/23/23 46/53/46 
f 48/55/48 12/12/12 19/19/19 47/54/47 
f 45/52/45 3/3/3 12/12/12 48/55/48 
f 38/38/38 37/37/37 49/56/49 50/57/50 
f 43/43/43 49/56/49 37/37/37 30/30/30 
f 51/58/51 52/59/52 39/60/39 41/61/41 
f 52/59/52 51/58/51 50/62/50 49/63/49 
f 49/63/49 43/64/43 53/65/53 52/59/52 
f 53/65/53 40/66/40 39/60/39 52/59/52 
f 43/64/43 42/67/42 53/65/53 
f 42/67/42 40/66/40 53/65/53 
f 51/58/51 41/61/41 54/68/54 55/69/55 
f 50/62/50 51/58/51 55/69/55 56/70/56 
f 38/38/38 57/71/57 58/72/58 35/35/35 
f 32/32/32 31/31/31 59/73/59 60/74/60 
f 54/75/54 41/41/41 32/32/32 60/74/60 
f 56/70/56 57/71/57 38/38/38 50/57/50 
f 46/53/46 23/23/23 35/35/35 58/72/58 
f 44/50/44 59/73/59 31/31/31 9/9/9 
f 54/68/54 60/76/60 61/77/61 55/69/55 
f 55/69/55 61/77/61 57/71/57 56/70/56 
f 57/71/57 61/77/61 62/78/62 58/72/58 
f 62/78/62 61/77/61 60/76/60 59/79/59 
f 47/54/47 46/53/46 58/72/58 62/78/62 
f 45/52/45 62/78/62 59/79/59 44/51/44 
f 48/55/48 62/78/62 45/52/45 
f 48/55/48 47/54/47 62/78/62 
# 58 polygons - 4 triangles

#
# object sand_small
#

v  -0.4696 12.1765 0.3944
v  1.5076 11.7782 2.5530
v  2.4650 11.7993 1.0186
v  1.0441 12.0242 -1.2896
v  -0.6310 11.1915 3.2227
v  0.6880 11.5896 3.2123
v  -1.4497 11.9057 1.3010
v  -2.2635 11.3705 1.5858
v  3.0866 11.7497 -2.1869
v  2.7998 11.6893 -3.6159
v  0.4272 11.5519 -2.3323
v  2.6646 11.6608 -4.2892
v  -1.3215 11.4868 -0.5546
v  -2.4044 11.4763 0.4453
v  -3.0328 11.4548 0.8145
v  -1.6529 10.9562 -0.9097
v  -2.7306 11.0577 -0.0189
v  0.0833 11.0584 -2.7215
v  -3.3969 11.0607 0.7111
v  -2.6293 10.8393 1.8926
v  0.9871 11.1448 3.6651
v  1.9906 11.4130 2.9346
v  -0.7118 10.6359 3.5855
v  3.0345 11.4374 1.2431
v  3.6972 11.3873 -2.1786
v  3.4455 11.4091 -3.7336
v  2.8258 11.3384 -4.5703
v  -1.5854 10.3942 -0.8252
v  -2.6820 10.4924 0.0629
v  0.2084 10.5085 -2.6208
v  -3.3023 10.5115 0.6554
v  -2.5182 10.3056 1.7135
v  1.1090 10.6052 3.5262
v  2.0405 10.8462 2.8886
v  -0.5784 10.1089 3.4043
v  3.0526 10.8639 1.2509
v  3.7328 10.8150 -2.1813
v  3.4801 10.8374 -3.7231
v  2.9043 10.7819 -4.4864
# 39 vertices

vn -0.1650 0.9835 -0.0738
vn 0.1937 0.9355 0.2956
vn 0.3077 0.9433 0.1246
vn -0.0297 0.9891 -0.1445
vn -0.3514 0.6982 0.6238
vn -0.0240 0.8460 0.5326
vn -0.3117 0.9236 0.2233
vn -0.4339 0.7402 0.5137
vn 0.2654 0.9637 -0.0287
vn 0.2442 0.9656 -0.0899
vn -0.3931 0.8376 -0.3793
vn 0.0622 0.8210 -0.5675
vn -0.4371 0.7888 -0.4321
vn -0.2823 0.8908 -0.3561
vn -0.5469 0.8368 0.0247
vn -0.6542 0.2614 -0.7097
vn -0.6255 0.3779 -0.6827
vn -0.6367 0.2482 -0.7301
vn -0.9614 0.2682 -0.0616
vn -0.7318 0.1667 0.6608
vn 0.1999 0.2984 0.9333
vn 0.6004 0.4917 0.6306
vn -0.3844 0.0379 0.9224
vn 0.8120 0.4905 0.3164
vn 0.8679 0.4966 0.0136
vn 0.7715 0.5414 -0.3344
vn 0.1416 0.2643 -0.9540
vn -0.6591 -0.1887 -0.7280
vn -0.6571 -0.1630 -0.7359
vn -0.6030 -0.2744 -0.7491
vn -0.9807 -0.1571 -0.1166
vn -0.7140 -0.3518 0.6054
vn 0.3078 -0.1713 0.9359
vn 0.7251 0.0080 0.6886
vn -0.3241 -0.3799 0.8664
vn 0.9302 0.0344 0.3655
vn 0.9979 0.0621 0.0160
vn 0.9190 0.0485 -0.3912
vn 0.2002 -0.1184 -0.9726
# 39 vertex normals

vt 0.2996 0.3561 0.0000
vt 0.5970 0.3162 0.0000
vt 0.5724 0.4925 0.0000
vt 0.3076 0.5788 0.0000
vt 0.4781 0.1258 0.0000
vt 0.5769 0.2189 0.0000
vt 0.2856 0.2279 0.0000
vt 0.2439 0.1420 0.0000
vt 0.4083 0.7813 0.0000
vt 0.2939 0.8734 0.0000
vt 0.1837 0.6212 0.0000
vt 0.2465 0.9159 0.0000
vt 0.1539 0.3690 0.0000
vt 0.1522 0.2203 0.0000
vt 0.1392 0.1544 0.0000
vt 0.0795 0.3727 0.0000
vt 0.0829 0.2247 0.0000
vt 0.1146 0.6332 0.0000
vt 0.1041 0.1283 0.0000
vt 0.2366 0.0743 0.0000
vt 0.6334 0.1878 0.0000
vt 0.6657 0.3117 0.0000
vt 0.4992 0.0680 0.0000
vt 0.6389 0.5138 0.0000
vt 0.4625 0.8268 0.0000
vt 0.3368 0.9254 0.0000
vt 0.2387 0.9481 0.0000
vt 0.0200 0.3751 0.0000
vt 0.0273 0.2118 0.0000
vt 0.0602 0.6498 0.0000
vt 0.0736 0.1012 0.0000
vt 0.2233 0.0204 0.0000
vt 0.6765 0.1620 0.0000
vt 0.7189 0.3068 0.0000
vt 0.5174 0.0200 0.0000
vt 0.6923 0.5302 0.0000
vt 0.5051 0.8645 0.0000
vt 0.3558 0.9755 0.0000
vt 0.2227 0.9800 0.0000
# 39 texture coords

o sand_small
g sand_small
s 1
f 63/80/63 64/81/64 65/82/65 66/83/66 
f 67/84/67 68/85/68 69/86/69 70/87/70 
f 63/80/63 69/86/69 68/85/68 64/81/64 
f 66/83/66 65/82/65 71/88/71 72/89/72 
f 73/90/73 66/83/66 72/89/72 74/91/74 
f 75/92/75 63/80/63 66/83/66 73/90/73 
f 69/86/69 63/80/63 75/92/75 76/93/76 
f 70/87/70 69/86/69 76/93/76 77/94/77 
f 75/92/75 78/95/78 79/96/79 76/93/76 
f 73/90/73 80/97/80 78/95/78 75/92/75 
f 77/94/77 81/98/81 82/99/82 70/87/70 
f 68/85/68 83/100/83 84/101/84 64/81/64 
f 67/84/67 85/102/85 83/100/83 68/85/68 
f 65/82/65 64/81/64 84/101/84 86/103/86 
f 71/88/71 87/104/87 88/105/88 72/89/72 
f 65/82/65 86/103/86 87/104/87 71/88/71 
f 77/94/77 76/93/76 79/96/79 81/98/81 
f 74/91/74 89/106/89 80/97/80 73/90/73 
f 74/91/74 72/89/72 88/105/88 89/106/89 
f 67/84/67 70/87/70 82/99/82 85/102/85 
f 78/95/78 90/107/90 91/108/91 79/96/79 
f 78/95/78 80/97/80 92/109/92 90/107/90 
f 82/99/82 81/98/81 93/110/93 94/111/94 
f 84/101/84 83/100/83 95/112/95 96/113/96 
f 85/102/85 97/114/97 95/112/95 83/100/83 
f 86/103/86 84/101/84 96/113/96 98/115/98 
f 87/104/87 99/116/99 100/117/100 88/105/88 
f 87/104/87 86/103/86 98/115/98 99/116/99 
f 79/96/79 91/108/91 93/110/93 81/98/81 
f 80/97/80 89/106/89 101/118/101 92/109/92 
f 88/105/88 100/117/100 101/118/101 89/106/89 
f 85/102/85 82/99/82 94/111/94 97/114/97 
# 32 polygons

